<?xml version="1.0" encoding="utf-8"?>
<!-- Generator: Adobe Illustrator 27.5.0, SVG Export Plug-In . SVG Version: 6.00 Build 0)  -->
<svg version="1.1" id="Layer_1" xmlns="http://www.w3.org/2000/svg" xmlns:xlink="http://www.w3.org/1999/xlink" x="0px" y="0px"
	 viewBox="0 0 4000 4000" style="enable-background:new 0 0 4000 4000;" xml:space="preserve">
<g>
	<rect x="0.001" style="fill-rule:evenodd;clip-rule:evenodd;fill:#FFFFFF;" width="3999.998" height="4000"/>
	<path style="fill-rule:evenodd;clip-rule:evenodd;" d="M3314.532,2844.131v288.015h-70.158v-172.73l-64.414,172.73h-56.62
		l-64.823-173.135v173.135h-70.158v-288.015h82.875l80.825,199.395l80.009-199.395H3314.532z M2768.035,2844.131v172.313
		c0,17.235,4.242,30.497,12.724,39.8c8.48,9.302,20.923,13.945,37.337,13.945c16.408,0,28.991-4.643,37.742-13.945
		c8.75-9.303,13.129-22.565,13.129-39.8v-172.313h70.164v171.903c0,25.715-5.473,47.457-16.415,65.235
		c-10.941,17.777-25.643,31.185-44.106,40.208s-39.044,13.54-61.749,13.54c-22.701,0-43.011-4.445-60.925-13.337
		c-17.916-8.887-32.07-22.29-42.462-40.205c-10.394-17.918-15.596-39.727-15.596-65.442v-171.903H2768.035z M2551.005,3135.017
		c-21.061,0-39.933-3.42-56.62-10.257c-16.683-6.835-30.021-16.96-40.002-30.358c-9.987-13.403-15.247-29.542-15.794-48.417h74.668
		c1.093,10.668,4.787,18.808,11.076,24.417c6.297,5.603,14.498,8.405,24.617,8.405c10.394,0,18.602-2.395,24.614-7.177
		c6.02-4.787,9.029-11.418,9.029-19.9c0-7.11-2.395-12.992-7.18-17.64c-4.781-4.653-10.663-8.48-17.637-11.49
		c-6.978-3.01-16.895-6.43-29.75-10.257c-18.6-5.745-33.775-11.485-45.542-17.235c-11.759-5.74-21.879-14.22-30.359-25.437
		c-8.48-11.21-12.718-25.847-12.718-43.898c0-26.802,9.709-47.797,29.13-62.977c19.417-15.183,44.72-22.772,75.903-22.772
		c31.728,0,57.302,7.588,76.723,22.772c19.417,15.18,29.812,36.307,31.181,63.388h-75.901c-0.547-9.298-3.965-16.617-10.262-21.955
		c-6.289-5.33-14.357-7.998-24.202-7.998c-8.48,0-15.318,2.258-20.514,6.77c-5.202,4.517-7.794,11.008-7.794,19.488
		c0,9.302,4.374,16.55,13.123,21.752c8.76,5.192,22.432,10.8,41.032,16.818c18.595,6.288,33.714,12.307,45.337,18.047
		c11.627,5.75,21.676,14.088,30.156,25.03s12.722,25.03,12.722,42.26c0,16.408-4.175,31.318-12.518,44.717
		c-8.339,13.403-20.445,24.072-36.308,32.003C2591.347,3131.049,2572.611,3135.017,2551.005,3135.017z M2299.09,2972.957
		c13.404,0,23.385-3.147,29.954-9.435c6.567-6.293,9.845-15.185,9.845-26.67c0-11.485-3.278-20.38-9.845-26.668
		c-6.569-6.288-16.551-9.435-29.954-9.435h-38.155v72.208H2299.09z M2410.276,2936.852c0,16.687-3.829,31.933-11.483,45.747
		c-7.66,13.81-19.421,24.955-35.289,33.435c-15.865,8.48-35.557,12.723-59.08,12.723h-43.49v103.388h-70.156v-288.015h113.645
		c22.974,0,42.395,3.965,58.26,11.896c15.865,7.932,27.761,18.874,35.693,32.82
		C2406.311,2902.799,2410.276,2918.801,2410.276,2936.852z M2139.903,2844.131v288.015h-70.158v-288.015H2139.903z
		 M2019.283,2844.131v288.015h-70.158v-172.73l-64.412,172.73h-56.616l-64.829-173.135v173.135h-70.158v-288.015h82.878
		l80.825,199.395l80.007-199.395H2019.283z M1541.305,2900.337v58.262h93.956v54.157h-93.956v63.183h106.262v56.207h-176.42
		v-288.015h176.42v56.207H1541.305z M1273.8,2973.779h43.494c12.854,0,22.495-3.147,28.922-9.44
		c6.433-6.288,9.648-15.175,9.648-26.665c0-10.942-3.214-19.558-9.648-25.847c-6.427-6.293-16.068-9.44-28.922-9.44H1273.8V2973.779
		z M1350.525,3132.146l-59.898-108.729H1273.8v108.729h-70.158v-288.015h117.755c22.703,0,42.053,3.965,58.055,11.896
		c16.001,7.932,27.968,18.808,35.901,32.617c7.927,13.815,11.896,29.202,11.896,46.158c0,19.143-5.404,36.242-16.203,51.283
		c-10.805,15.043-26.742,25.71-47.799,32.003l66.463,114.057H1350.525z M1017.383,3071.015c22.976,0,41.366-7.662,55.18-22.978
		s20.717-35.562,20.717-60.718c0-25.442-6.903-45.752-20.717-60.932c-13.814-15.178-32.204-22.772-55.18-22.772
		c-23.25,0-41.783,7.527-55.597,22.57c-13.81,15.047-20.717,35.423-20.717,61.133c0,25.437,6.907,45.747,20.717,60.925
		C975.601,3063.424,994.133,3071.015,1017.383,3071.015z M1017.383,3135.017c-27.079,0-51.904-6.292-74.467-18.873
		c-22.569-12.582-40.482-30.157-53.75-52.72c-13.263-22.563-19.893-47.938-19.893-76.105c0-28.172,6.63-53.475,19.893-75.903
		c13.267-22.427,31.181-39.935,53.75-52.515c22.563-12.586,47.388-18.875,74.467-18.875c27.075,0,51.896,6.289,74.465,18.875
		c22.565,12.58,40.342,30.089,53.341,52.515c12.986,22.428,19.482,47.732,19.482,75.903c0,28.167-6.563,53.542-19.696,76.105
		c-13.125,22.563-30.902,40.138-53.328,52.72C1069.214,3128.725,1044.458,3135.017,1017.383,3135.017z M2814.51,3194.592h-13.021
		v105.983h17.106v-74.796l60.109,74.796h12.864v-105.983h-16.951v75.402L2814.51,3194.592z M2674.015,3262.874h-44.816
		l22.408-50.418L2674.015,3262.874z M2690.37,3300.575h18.016l-47.542-105.983h-18.473l-47.54,105.983h18.018l9.998-22.257h57.377
		L2690.37,3300.575z M2506.421,3208.062c-10.799-10.697-23.871-16.048-39.217-16.048c-17.361,0-30.986,5.428-40.875,16.28
		c-9.892,10.847-14.84,24.302-14.84,40.35c0,7.267,1.111,14.057,3.33,20.364c2.222,6.307,5.505,12.008,9.841,17.107
		c4.342,5.098,10.173,9.136,17.487,12.118c7.318,2.972,15.674,4.46,25.057,4.46c16.555,0,30.436-6.152,41.642-18.468v-43.455
		h-45.276v15.142h29.529v21.502c-7.469,6.255-16.101,9.386-25.895,9.386c-12.917,0-22.658-3.69-29.22-11.055
		c-6.557-7.37-9.841-16.403-9.841-27.1c-0.1-11.606,3.384-21.353,10.449-29.22c7.064-7.875,16.602-11.81,28.611-11.81
		c5.05,0,10.173,0.982,15.375,2.951c5.19,1.965,9.613,4.767,13.24,8.4L2506.421,3208.062z M2227.846,3248.337
		c0-11.905,3.308-21.595,9.922-29.068c6.61-7.47,15.869-11.207,27.779-11.207c8.173,0.103,15.169,2.197,20.972,6.288
		c5.802,4.092,9.94,9.057,12.415,14.915c2.472,5.853,3.711,12.212,3.711,19.072c0,11.107-3.129,20.367-9.389,27.785
		c-6.254,7.422-15.595,11.125-28.009,11.125c-6.26,0-11.835-1.133-16.73-3.405c-4.895-2.268-8.807-5.297-11.731-9.082
		c-2.93-3.783-5.127-7.922-6.586-12.415C2228.731,3257.852,2227.95,3253.185,2227.846,3248.337z M2265.548,3192.622
		c-15.944,0-29.016,5.222-39.213,15.672c-10.195,10.445-15.291,23.745-15.291,39.892c0,7.168,1.133,13.957,3.404,20.368
		c2.274,6.405,5.558,12.188,9.843,17.333c4.289,5.15,9.967,9.26,17.037,12.345c7.062,3.075,15.035,4.615,23.92,4.615
		c8.887,0,16.856-1.492,23.917-4.468c7.074-2.977,12.746-7.04,17.041-12.185c4.287-5.153,7.568-10.978,9.837-17.49
		c2.272-6.515,3.406-13.398,3.406-20.668c0-15.34-4.689-28.385-14.079-39.137C2295.978,3198.15,2282.707,3192.722,2265.548,3192.622
		z M2052.836,3194.592v105.983h72.821v-15.741h-55.865v-90.242H2052.836z M1950.647,3209.432
		c-7.469-11.91-20.64-17.868-39.514-17.868c-5.052,0-9.894,0.577-14.539,1.738c-4.643,1.158-8.984,2.907-13.021,5.227
		c-4.038,2.318-7.269,5.498-9.688,9.533c-2.419,4.043-3.634,8.688-3.634,13.932c0,4.342,0.779,8.202,2.348,11.585
		c1.563,3.382,3.53,6.132,5.904,8.253c2.37,2.117,5.477,3.93,9.31,5.447c3.839,1.511,7.495,2.678,10.974,3.481
		c3.487,0.808,7.648,1.517,12.496,2.122c8.48,1.11,15.112,2.953,19.908,5.523c4.797,2.575,7.192,6.538,7.192,11.887
		c0,4.138-1.385,7.597-4.165,10.37c-2.773,2.778-6.079,4.671-9.914,5.683c-3.837,1.007-8.075,1.512-12.718,1.512
		c-15.143,0-26.141-5.802-33.01-17.413l-12.714,8.48c8.677,16.048,23.869,24.075,45.567,24.075c7.873,0,14.966-1.04,21.275-3.108
		c6.311-2.07,11.658-5.622,16.048-10.668c4.392-5.05,6.586-11.357,6.586-18.93c0-5.65-1.133-10.522-3.406-14.608
		c-2.268-4.092-5.572-7.318-9.914-9.69c-4.342-2.372-8.734-4.162-13.171-5.377c-4.445-1.208-9.792-2.271-16.048-3.178
		c-8.382-1.21-14.768-2.878-19.157-4.995c-4.39-2.12-6.586-5.498-6.586-10.146c0-4.942,2.273-8.854,6.814-11.732
		c4.539-2.882,10.449-4.318,17.716-4.318c5.55,0.1,10.671,1.187,15.369,3.255c4.694,2.07,8.299,4.923,10.822,8.552
		L1950.647,3209.432z M1736.267,3210.032c6.557,0,11.556,1.942,14.99,5.83c3.43,3.883,5.145,8.457,5.145,13.7
		c0,5.353-1.715,9.847-5.145,13.48c-3.434,3.632-8.48,5.452-15.141,5.452h-32.249v-38.462H1736.267z M1776.542,3297.547
		l-31.649-35.277c9.794-1.418,17.037-5.178,21.733-11.283c4.698-6.103,7.039-13.35,7.039-21.722c0-9.487-3.306-17.642-9.92-24.453
		c-6.61-6.813-15.765-10.22-27.478-10.22c-5.448,0-13.678-0.028-24.678-0.075c-11.005-0.057-19.23-0.08-24.679-0.08v106.138h16.958
		v-36.638h22.408l32.249,36.638h19.836L1776.542,3297.547z M1566.406,3194.744v61.923c0,9.892-2.726,17.537-8.179,22.942
		c-5.446,5.395-12.514,7.842-21.198,7.342c-8.075-0.306-14.583-3.08-19.525-8.33c-4.952-5.248-7.424-12.567-7.424-21.953v-61.923
		h-16.809v61.923c0,14.333,4.167,25.488,12.49,33.462c8.335,7.975,18.752,12.115,31.268,12.412
		c13.426,0.505,24.475-3.255,33.158-11.277c8.681-8.027,13.023-19.555,13.023-34.597v-61.923H1566.406z M1304.484,3248.337
		c0-11.905,3.306-21.595,9.922-29.068c6.61-7.47,15.869-11.207,27.779-11.207c8.175,0.103,15.171,2.197,20.972,6.288
		c5.802,4.092,9.941,9.057,12.415,14.915c2.472,5.853,3.709,12.212,3.709,19.072c0,11.107-3.127,20.367-9.387,27.785
		c-6.254,7.422-15.594,11.125-28.011,11.125c-6.26,0-11.835-1.133-16.728-3.405c-4.895-2.268-8.807-5.297-11.731-9.082
		c-2.93-3.783-5.127-7.922-6.586-12.415C1305.367,3257.852,1304.59,3253.185,1304.484,3248.337z M1342.186,3192.622
		c-15.944,0-29.018,5.222-39.213,15.672c-10.195,10.445-15.293,23.745-15.293,39.892c0,7.168,1.135,13.957,3.408,20.368
		c2.273,6.405,5.556,12.188,9.841,17.333c4.291,5.15,9.969,9.26,17.035,12.345c7.064,3.075,15.039,4.615,23.92,4.615
		c8.887,0,16.858-1.492,23.92-4.468c7.074-2.977,12.748-7.04,17.043-12.185c4.285-5.153,7.568-10.978,9.835-17.49
		c2.273-6.515,3.406-13.398,3.406-20.668c0-15.34-4.692-28.385-14.079-39.137C1372.616,3198.15,1359.345,3192.722,1342.186,3192.622
		z M1128.567,3194.592h-20.135v0.757l40.875,61.777v43.45h16.962v-43.45l42.09-61.777v-0.757h-20.439l-30.131,46.782
		L1128.567,3194.592z M755.622,3077.989h91.905v54.157H685.464v-288.015h70.158V3077.989z"/>
	<g>
		<defs>
			<path id="SVGID_1_" d="M2090.377,1148.915v1268.574c0,54.005-12.96,91.408-38.948,112.205
				c-25.995,20.763-73.263,31.18-141.809,31.18c-269.649,5.259-337.298-387.466-367.796-561.42v439.867v2.021v209.905h548.553
				c126.746,0,219.731-27.018,278.965-81.023c59.231-54.038,88.829-151.705,88.829-292.993v-564.16v-1.947v-163.073
				c0,0-13.586-297.577-62.441-414.406C2346.869,1016.816,2114.998,1024.181,2090.377,1148.915"/>
		</defs>
		<clipPath id="SVGID_00000005979121371905034250000004592201789455867327_">
			<use xlink:href="#SVGID_1_"  style="overflow:visible;"/>
		</clipPath>
		
			<linearGradient id="SVGID_00000104665179327480161950000008201163956491291551_" gradientUnits="userSpaceOnUse" x1="1881.4929" y1="82.7352" x2="2124.4944" y2="3673.9009">
			<stop  offset="0" style="stop-color:#FF0000"/>
			<stop  offset="1" style="stop-color:#FFFF00"/>
		</linearGradient>
		
			<rect x="1541.823" y="1016.816" style="clip-path:url(#SVGID_00000005979121371905034250000004592201789455867327_);fill:url(#SVGID_00000104665179327480161950000008201163956491291551_);" width="916.347" height="1634.431"/>
	</g>
	<g>
		<defs>
			<path id="SVGID_00000096777142691369035900000012410530014492467628_" d="M1907.688,1310.848l182.688-161.933
				c93.117-82.53,251.29-34.313,300.146,82.517c48.854,116.83,67.647,316.62,67.647,316.62v-253.8v-1.947V765.548v-68.547
				l-548.551,486.221c-0.641,0.695-1.286,1.308-1.931,1.99V1310.848z"/>
		</defs>
		<clipPath id="SVGID_00000155121746190423121320000016516795751202697397_">
			<use xlink:href="#SVGID_00000096777142691369035900000012410530014492467628_"  style="overflow:visible;"/>
		</clipPath>
		
			<linearGradient id="SVGID_00000060715244911952115110000000463546565910363816_" gradientUnits="userSpaceOnUse" x1="3596.3972" y1="2927.6272" x2="1315.4005" y2="14.629">
			<stop  offset="0" style="stop-color:#0000FF"/>
			<stop  offset="1" style="stop-color:#00FFFF"/>
		</linearGradient>
		
			<rect x="1907.688" y="697.002" style="clip-path:url(#SVGID_00000155121746190423121320000016516795751202697397_);fill:url(#SVGID_00000060715244911952115110000000463546565910363816_);" width="550.482" height="851.049"/>
	</g>
	<path style="opacity:0.3;fill-rule:evenodd;clip-rule:evenodd;fill:#870000;" d="M2090.377,1233.203
		c57.009-43.21,131.049-67.38,218.797-14.14c117.306,71.182,148.997,328.988,148.997,328.988s-18.793-199.79-67.647-316.62
		c-48.857-116.83-207.033-165.047-300.146-82.517V1233.203z"/>
</g>
</svg>
